# Blender 5.1.1
# www.blender.org
mtllib droney.mtl
o Cube
v -1.838959 -0.028033 1.544877
v -1.838959 1.014837 1.544877
v -1.838959 -0.028033 -1.544877
v -1.838959 1.014837 -1.544877
v 1.838959 -0.028033 1.544877
v 1.838959 1.014837 1.544877
v 1.838959 -0.028033 -1.544877
v 1.838959 1.014837 -1.544877
vn -1.0000 -0.0000 -0.0000
vn -0.0000 -0.0000 -1.0000
vn 1.0000 -0.0000 -0.0000
vn -0.0000 -0.0000 1.0000
vn -0.0000 -1.0000 -0.0000
vn -0.0000 1.0000 -0.0000
vt 0.375000 0.000000
vt 0.625000 0.000000
vt 0.625000 0.250000
vt 0.375000 0.250000
vt 0.625000 0.500000
vt 0.375000 0.500000
vt 0.625000 0.750000
vt 0.375000 0.750000
vt 0.625000 1.000000
vt 0.375000 1.000000
vt 0.125000 0.500000
vt 0.125000 0.750000
vt 0.875000 0.500000
vt 0.875000 0.750000
s 0
f 1/1/1 2/2/1 4/3/1 3/4/1
f 3/4/2 4/3/2 8/5/2 7/6/2
f 7/6/3 8/5/3 6/7/3 5/8/3
f 5/8/4 6/7/4 2/9/4 1/10/4
f 3/11/5 7/6/5 5/8/5 1/12/5
f 8/5/6 4/13/6 2/14/6 6/7/6
o Circle
v -1.605632 1.032260 -2.291909
v -1.800722 1.032260 -2.272694
v -1.988315 1.032260 -2.215788
v -2.161202 1.032260 -2.123378
v -2.312739 1.032260 -1.999016
v -2.437101 1.032260 -1.847479
v -2.529511 1.032260 -1.674592
v -2.586417 1.032260 -1.486999
v -2.605632 1.032260 -1.291909
v -2.586417 1.032260 -1.096818
v -2.529511 1.032260 -0.909225
v -2.437101 1.032260 -0.736338
v -2.312739 1.032260 -0.584802
v -2.161202 1.032260 -0.460439
v -1.988315 1.032260 -0.368029
v -1.800722 1.032260 -0.311123
v -1.605632 1.032260 -0.291909
v -1.410542 1.032260 -0.311123
v -1.222948 1.032260 -0.368029
v -1.050062 1.032260 -0.460439
v -0.898525 1.032260 -0.584802
v -0.774162 1.032260 -0.736338
v -0.681752 1.032260 -0.909225
v -0.624847 1.032260 -1.096818
v -0.605632 1.032260 -1.291909
v -0.624847 1.032260 -1.486999
v -0.681752 1.032260 -1.674592
v -0.774162 1.032260 -1.847479
v -0.898525 1.032260 -1.999016
v -1.050062 1.032260 -2.123378
v -1.222948 1.032260 -2.215788
v -1.410542 1.032260 -2.272694
v -1.605632 1.032260 -2.075230
v -1.758450 1.032260 -2.060179
v -1.905396 1.032260 -2.015604
v -2.040822 1.032260 -1.943217
v -2.159524 1.032260 -1.845801
v -2.256940 1.032260 -1.727099
v -2.329327 1.032260 -1.591673
v -2.373902 1.032260 -1.444727
v -2.388953 1.032260 -1.291909
v -2.373902 1.032260 -1.139090
v -2.329327 1.032260 -0.992145
v -2.256940 1.032260 -0.856719
v -2.159524 1.032260 -0.738017
v -2.040822 1.032260 -0.640601
v -1.905396 1.032260 -0.568214
v -1.758450 1.032260 -0.523638
v -1.605632 1.032260 -0.508587
v -1.452813 1.032260 -0.523638
v -1.305868 1.032260 -0.568214
v -1.170442 1.032260 -0.640601
v -1.051740 1.032260 -0.738017
v -0.954324 1.032260 -0.856719
v -0.881937 1.032260 -0.992145
v -0.837362 1.032260 -1.139090
v -0.822310 1.032260 -1.291909
v -0.837362 1.032260 -1.444727
v -0.881937 1.032260 -1.591673
v -0.954324 1.032260 -1.727099
v -1.051740 1.032260 -1.845801
v -1.170442 1.032260 -1.943217
v -1.305868 1.032260 -2.015604
v -1.452813 1.032260 -2.060179
v -1.605632 1.301718 -2.291909
v -1.800722 1.301718 -2.272694
v -1.988315 1.301718 -2.215788
v -2.161202 1.301718 -2.123378
v -2.312739 1.301718 -1.999016
v -2.437101 1.301718 -1.847479
v -2.529511 1.301718 -1.674592
v -2.586417 1.301718 -1.486999
v -2.605632 1.301718 -1.291909
v -2.586417 1.301718 -1.096818
v -2.529511 1.301718 -0.909225
v -2.437101 1.301718 -0.736338
v -2.312739 1.301718 -0.584802
v -2.161202 1.301718 -0.460439
v -1.988315 1.301718 -0.368029
v -1.800722 1.301718 -0.311123
v -1.605632 1.301718 -0.291909
v -1.410542 1.301718 -0.311123
v -1.222948 1.301718 -0.368029
v -1.050062 1.301718 -0.460439
v -0.898525 1.301718 -0.584802
v -0.774162 1.301718 -0.736338
v -0.681752 1.301718 -0.909225
v -0.624847 1.301718 -1.096818
v -0.605632 1.301718 -1.291909
v -0.624847 1.301718 -1.486999
v -0.681752 1.301718 -1.674592
v -0.774162 1.301718 -1.847479
v -0.898525 1.301718 -1.999016
v -1.050062 1.301718 -2.123378
v -1.222948 1.301718 -2.215788
v -1.410542 1.301718 -2.272694
v -1.605632 1.301718 -2.075230
v -1.758450 1.301718 -2.060179
v -1.905396 1.301718 -2.015604
v -2.040822 1.301718 -1.943217
v -2.159524 1.301718 -1.845801
v -2.256940 1.301718 -1.727099
v -2.329327 1.301718 -1.591673
v -2.373902 1.301718 -1.444727
v -2.388953 1.301718 -1.291909
v -2.373902 1.301718 -1.139090
v -2.329327 1.301718 -0.992145
v -2.256940 1.301718 -0.856719
v -2.159524 1.301718 -0.738017
v -2.040822 1.301718 -0.640601
v -1.905396 1.301718 -0.568214
v -1.758450 1.301718 -0.523638
v -1.605632 1.301718 -0.508587
v -1.452813 1.301718 -0.523638
v -1.305868 1.301718 -0.568214
v -1.170442 1.301718 -0.640601
v -1.051740 1.301718 -0.738017
v -0.954324 1.301718 -0.856719
v -0.881937 1.301718 -0.992145
v -0.837362 1.301718 -1.139090
v -0.822310 1.301718 -1.291909
v -0.837362 1.301718 -1.444727
v -0.881937 1.301718 -1.591673
v -0.954324 1.301718 -1.727099
v -1.051740 1.301718 -1.845801
v -1.170442 1.301718 -1.943217
v -1.305868 1.301718 -2.015604
v -1.452813 1.301718 -2.060179
v -1.689560 1.345892 -1.494529
v -1.689560 0.988082 -1.494529
v -1.727476 1.345892 -1.474262
v -1.727476 0.988082 -1.474262
v -1.760710 1.345892 -1.446987
v -1.760710 0.988082 -1.446987
v -1.787985 1.345892 -1.413753
v -1.787985 0.988082 -1.413753
v -1.808252 1.345892 -1.375837
v -1.808252 0.988082 -1.375837
v -1.820732 1.345892 -1.334695
v -1.820732 0.988082 -1.334695
v -1.824946 1.345892 -1.291909
v -1.824946 0.988082 -1.291909
v -1.820732 1.345892 -1.249122
v -1.820732 0.988082 -1.249122
v -1.808252 1.345892 -1.207980
v -1.808252 0.988082 -1.207980
v -1.787985 1.345892 -1.170064
v -1.787985 0.988082 -1.170064
v -1.760710 1.345892 -1.136830
v -1.760710 0.988082 -1.136830
v -1.727476 1.345892 -1.109555
v -1.727476 0.988082 -1.109555
v -1.689560 1.345892 -1.089288
v -1.689560 0.988082 -1.089288
v -1.648418 1.345892 -1.076808
v -1.648418 0.988082 -1.076808
v -1.605632 1.345892 -1.072594
v -1.605632 0.988082 -1.072594
v -1.562846 1.345892 -1.076808
v -1.562846 0.988082 -1.076808
v -1.521704 1.345892 -1.089288
v -1.521704 0.988082 -1.089288
v -1.483787 1.345892 -1.109555
v -1.483787 0.988082 -1.109555
v -1.450553 1.345892 -1.136830
v -1.450553 0.988082 -1.136830
v -1.423278 1.345892 -1.170064
v -1.423278 0.988082 -1.170064
v -1.403012 1.345892 -1.207980
v -1.403012 0.988082 -1.207980
v -1.390531 1.345892 -1.249122
v -1.390531 0.988082 -1.249122
v -1.386317 1.345892 -1.291909
v -1.386317 0.988082 -1.291909
v -1.390531 1.345892 -1.334695
v -1.390531 0.988082 -1.334695
v -1.403012 1.345892 -1.375837
v -1.403012 0.988082 -1.375837
v -1.423278 1.345892 -1.413753
v -1.423278 0.988082 -1.413753
v -1.450553 1.345892 -1.446987
v -1.450553 0.988082 -1.446987
v -1.483787 1.345892 -1.474262
v -1.483787 0.988082 -1.474262
v -1.521704 1.345892 -1.494529
v -1.521704 0.988082 -1.494529
v -1.562846 1.345892 -1.507009
v -1.562846 0.988082 -1.507009
v -1.605632 1.345892 -1.511223
v -1.605632 0.988082 -1.511223
v -1.648418 0.988082 -1.507009
v -1.648418 1.345892 -1.507009
v -1.717682 1.114358 -1.409181
v -1.717682 1.219617 -1.409181
v -1.717682 1.114358 -2.099023
v -1.717682 1.219617 -2.099023
v -1.493582 1.114358 -1.409181
v -1.493582 1.219617 -1.409181
v -1.493582 1.114358 -2.099023
v -1.493582 1.219617 -2.099023
v -1.763218 1.114358 -1.253506
v -1.763218 1.219617 -1.253506
v -2.360638 1.114358 -1.598427
v -2.360638 1.219617 -1.598427
v -1.651168 1.114358 -1.447583
v -1.651168 1.219617 -1.447583
v -2.248588 1.114358 -1.792504
v -2.248588 1.219617 -1.792504
v -1.651168 1.114358 -1.136234
v -1.651168 1.219617 -1.136234
v -2.248588 1.114358 -0.791313
v -2.248588 1.219617 -0.791313
v -1.763218 1.114358 -1.330310
v -1.763218 1.219617 -1.330310
v -2.360638 1.114358 -0.985389
v -2.360638 1.219617 -0.985389
v -1.493581 1.114358 -1.174636
v -1.493581 1.219617 -1.174636
v -1.493581 1.114358 -0.484794
v -1.493581 1.219617 -0.484794
v -1.717682 1.114358 -1.174636
v -1.717682 1.219617 -1.174636
v -1.717682 1.114358 -0.484794
v -1.717682 1.219617 -0.484794
v -1.448045 1.114358 -1.330311
v -1.448045 1.219617 -1.330311
v -0.850625 1.114358 -0.985390
v -0.850625 1.219617 -0.985390
v -1.560095 1.114358 -1.136234
v -1.560095 1.219617 -1.136234
v -0.962675 1.114358 -0.791313
v -0.962675 1.219617 -0.791313
v -1.560095 1.114358 -1.447583
v -1.560095 1.219617 -1.447583
v -0.962675 1.114358 -1.792504
v -0.962675 1.219617 -1.792504
v -1.448045 1.114358 -1.253507
v -1.448045 1.219617 -1.253507
v -0.850625 1.114358 -1.598427
v -0.850625 1.219617 -1.598427
v 1.605632 1.032260 -2.291909
v 1.800722 1.032260 -2.272694
v 1.988315 1.032260 -2.215788
v 2.161202 1.032260 -2.123378
v 2.312739 1.032260 -1.999016
v 2.437101 1.032260 -1.847479
v 2.529511 1.032260 -1.674592
v 2.586417 1.032260 -1.486999
v 2.605632 1.032260 -1.291909
v 2.586417 1.032260 -1.096818
v 2.529511 1.032260 -0.909225
v 2.437101 1.032260 -0.736338
v 2.312739 1.032260 -0.584802
v 2.161202 1.032260 -0.460439
v 1.988315 1.032260 -0.368029
v 1.800722 1.032260 -0.311123
v 1.605632 1.032260 -0.291909
v 1.410542 1.032260 -0.311123
v 1.222948 1.032260 -0.368029
v 1.050062 1.032260 -0.460439
v 0.898525 1.032260 -0.584802
v 0.774162 1.032260 -0.736338
v 0.681752 1.032260 -0.909225
v 0.624846 1.032260 -1.096818
v 0.605632 1.032260 -1.291909
v 0.624846 1.032260 -1.486999
v 0.681752 1.032260 -1.674592
v 0.774162 1.032260 -1.847479
v 0.898525 1.032260 -1.999016
v 1.050062 1.032260 -2.123378
v 1.222948 1.032260 -2.215788
v 1.410542 1.032260 -2.272694
v 1.605632 1.032260 -2.075230
v 1.758450 1.032260 -2.060179
v 1.905396 1.032260 -2.015604
v 2.040822 1.032260 -1.943217
v 2.159524 1.032260 -1.845801
v 2.256940 1.032260 -1.727099
v 2.329327 1.032260 -1.591673
v 2.373902 1.032260 -1.444727
v 2.388953 1.032260 -1.291909
v 2.373902 1.032260 -1.139090
v 2.329327 1.032260 -0.992145
v 2.256940 1.032260 -0.856719
v 2.159524 1.032260 -0.738017
v 2.040822 1.032260 -0.640601
v 1.905396 1.032260 -0.568214
v 1.758450 1.032260 -0.523638
v 1.605632 1.032260 -0.508587
v 1.452813 1.032260 -0.523638
v 1.305868 1.032260 -0.568214
v 1.170442 1.032260 -0.640601
v 1.051740 1.032260 -0.738017
v 0.954324 1.032260 -0.856719
v 0.881937 1.032260 -0.992145
v 0.837362 1.032260 -1.139090
v 0.822310 1.032260 -1.291909
v 0.837362 1.032260 -1.444727
v 0.881937 1.032260 -1.591673
v 0.954324 1.032260 -1.727099
v 1.051740 1.032260 -1.845801
v 1.170442 1.032260 -1.943217
v 1.305868 1.032260 -2.015604
v 1.452813 1.032260 -2.060179
v 1.605632 1.301718 -2.291909
v 1.800722 1.301718 -2.272694
v 1.988315 1.301718 -2.215788
v 2.161202 1.301718 -2.123378
v 2.312739 1.301718 -1.999016
v 2.437101 1.301718 -1.847479
v 2.529511 1.301718 -1.674592
v 2.586417 1.301718 -1.486999
v 2.605632 1.301718 -1.291909
v 2.586417 1.301718 -1.096818
v 2.529511 1.301718 -0.909225
v 2.437101 1.301718 -0.736338
v 2.312739 1.301718 -0.584802
v 2.161202 1.301718 -0.460439
v 1.988315 1.301718 -0.368029
v 1.800722 1.301718 -0.311123
v 1.605632 1.301718 -0.291909
v 1.410542 1.301718 -0.311123
v 1.222948 1.301718 -0.368029
v 1.050062 1.301718 -0.460439
v 0.898525 1.301718 -0.584802
v 0.774162 1.301718 -0.736338
v 0.681752 1.301718 -0.909225
v 0.624846 1.301718 -1.096818
v 0.605632 1.301718 -1.291909
v 0.624846 1.301718 -1.486999
v 0.681752 1.301718 -1.674592
v 0.774162 1.301718 -1.847479
v 0.898525 1.301718 -1.999016
v 1.050062 1.301718 -2.123378
v 1.222948 1.301718 -2.215788
v 1.410542 1.301718 -2.272694
v 1.605632 1.301718 -2.075230
v 1.758450 1.301718 -2.060179
v 1.905396 1.301718 -2.015604
v 2.040822 1.301718 -1.943217
v 2.159524 1.301718 -1.845801
v 2.256940 1.301718 -1.727099
v 2.329327 1.301718 -1.591673
v 2.373902 1.301718 -1.444727
v 2.388953 1.301718 -1.291909
v 2.373902 1.301718 -1.139090
v 2.329327 1.301718 -0.992145
v 2.256940 1.301718 -0.856719
v 2.159524 1.301718 -0.738017
v 2.040822 1.301718 -0.640601
v 1.905396 1.301718 -0.568214
v 1.758450 1.301718 -0.523638
v 1.605632 1.301718 -0.508587
v 1.452813 1.301718 -0.523638
v 1.305868 1.301718 -0.568214
v 1.170442 1.301718 -0.640601
v 1.051740 1.301718 -0.738017
v 0.954324 1.301718 -0.856719
v 0.881937 1.301718 -0.992145
v 0.837362 1.301718 -1.139090
v 0.822310 1.301718 -1.291909
v 0.837362 1.301718 -1.444727
v 0.881937 1.301718 -1.591673
v 0.954324 1.301718 -1.727099
v 1.051740 1.301718 -1.845801
v 1.170442 1.301718 -1.943217
v 1.305868 1.301718 -2.015604
v 1.452813 1.301718 -2.060179
v 1.689560 1.345892 -1.494529
v 1.689560 0.988082 -1.494529
v 1.727476 1.345892 -1.474262
v 1.727476 0.988082 -1.474262
v 1.760710 1.345892 -1.446987
v 1.760710 0.988082 -1.446987
v 1.787985 1.345892 -1.413753
v 1.787985 0.988082 -1.413753
v 1.808252 1.345892 -1.375837
v 1.808252 0.988082 -1.375837
v 1.820732 1.345892 -1.334695
v 1.820732 0.988082 -1.334695
v 1.824946 1.345892 -1.291909
v 1.824946 0.988082 -1.291909
v 1.820732 1.345892 -1.249122
v 1.820732 0.988082 -1.249122
v 1.808252 1.345892 -1.207980
v 1.808252 0.988082 -1.207980
v 1.787985 1.345892 -1.170064
v 1.787985 0.988082 -1.170064
v 1.760710 1.345892 -1.136830
v 1.760710 0.988082 -1.136830
v 1.727476 1.345892 -1.109555
v 1.727476 0.988082 -1.109555
v 1.689560 1.345892 -1.089288
v 1.689560 0.988082 -1.089288
v 1.648418 1.345892 -1.076808
v 1.648418 0.988082 -1.076808
v 1.605632 1.345892 -1.072594
v 1.605632 0.988082 -1.072594
v 1.562845 1.345892 -1.076808
v 1.562845 0.988082 -1.076808
v 1.521704 1.345892 -1.089288
v 1.521704 0.988082 -1.089288
v 1.483787 1.345892 -1.109555
v 1.483787 0.988082 -1.109555
v 1.450553 1.345892 -1.136830
v 1.450553 0.988082 -1.136830
v 1.423278 1.345892 -1.170064
v 1.423278 0.988082 -1.170064
v 1.403012 1.345892 -1.207980
v 1.403012 0.988082 -1.207980
v 1.390531 1.345892 -1.249122
v 1.390531 0.988082 -1.249122
v 1.386317 1.345892 -1.291909
v 1.386317 0.988082 -1.291909
v 1.390531 1.345892 -1.334695
v 1.390531 0.988082 -1.334695
v 1.403012 1.345892 -1.375837
v 1.403012 0.988082 -1.375837
v 1.423278 1.345892 -1.413753
v 1.423278 0.988082 -1.413753
v 1.450553 1.345892 -1.446987
v 1.450553 0.988082 -1.446987
v 1.483787 1.345892 -1.474262
v 1.483787 0.988082 -1.474262
v 1.521704 1.345892 -1.494529
v 1.521704 0.988082 -1.494529
v 1.562845 1.345892 -1.507009
v 1.562845 0.988082 -1.507009
v 1.605632 1.345892 -1.511223
v 1.605632 0.988082 -1.511223
v 1.648418 0.988082 -1.507009
v 1.648418 1.345892 -1.507009
v 1.717682 1.114358 -1.409181
v 1.717682 1.219617 -1.409181
v 1.717682 1.114358 -2.099023
v 1.717682 1.219617 -2.099023
v 1.493582 1.114358 -1.409181
v 1.493582 1.219617 -1.409181
v 1.493582 1.114358 -2.099023
v 1.493582 1.219617 -2.099023
v 1.763218 1.114358 -1.253506
v 1.763218 1.219617 -1.253506
v 2.360638 1.114358 -1.598427
v 2.360638 1.219617 -1.598427
v 1.651168 1.114358 -1.447583
v 1.651168 1.219617 -1.447583
v 2.248588 1.114358 -1.792504
v 2.248588 1.219617 -1.792504
v 1.651168 1.114358 -1.136234
v 1.651168 1.219617 -1.136234
v 2.248588 1.114358 -0.791313
v 2.248588 1.219617 -0.791313
v 1.763218 1.114358 -1.330310
v 1.763218 1.219617 -1.330310
v 2.360638 1.114358 -0.985389
v 2.360638 1.219617 -0.985389
v 1.493581 1.114358 -1.174636
v 1.493581 1.219617 -1.174636
v 1.493581 1.114358 -0.484794
v 1.493581 1.219617 -0.484794
v 1.717682 1.114358 -1.174636
v 1.717682 1.219617 -1.174636
v 1.717682 1.114358 -0.484794
v 1.717682 1.219617 -0.484794
v 1.448045 1.114358 -1.330311
v 1.448045 1.219617 -1.330311
v 0.850625 1.114358 -0.985390
v 0.850625 1.219617 -0.985390
v 1.560095 1.114358 -1.136234
v 1.560095 1.219617 -1.136234
v 0.962675 1.114358 -0.791313
v 0.962675 1.219617 -0.791313
v 1.560096 1.114358 -1.447583
v 1.560096 1.219617 -1.447583
v 0.962675 1.114358 -1.792504
v 0.962675 1.219617 -1.792504
v 1.448045 1.114358 -1.253507
v 1.448045 1.219617 -1.253507
v 0.850625 1.114358 -1.598427
v 0.850625 1.219617 -1.598427
v -1.605632 1.032260 2.291909
v -1.800722 1.032260 2.272694
v -1.988315 1.032260 2.215788
v -2.161202 1.032260 2.123378
v -2.312739 1.032260 1.999016
v -2.437101 1.032260 1.847479
v -2.529511 1.032260 1.674592
v -2.586417 1.032260 1.486999
v -2.605632 1.032260 1.291909
v -2.586417 1.032260 1.096818
v -2.529511 1.032260 0.909225
v -2.437101 1.032260 0.736339
v -2.312739 1.032260 0.584802
v -2.161202 1.032260 0.460439
v -1.988315 1.032260 0.368029
v -1.800722 1.032260 0.311123
v -1.605632 1.032260 0.291909
v -1.410542 1.032260 0.311123
v -1.222948 1.032260 0.368029
v -1.050062 1.032260 0.460439
v -0.898525 1.032260 0.584802
v -0.774162 1.032260 0.736339
v -0.681752 1.032260 0.909225
v -0.624847 1.032260 1.096818
v -0.605632 1.032260 1.291909
v -0.624847 1.032260 1.486999
v -0.681752 1.032260 1.674592
v -0.774162 1.032260 1.847479
v -0.898525 1.032260 1.999016
v -1.050062 1.032260 2.123378
v -1.222948 1.032260 2.215788
v -1.410542 1.032260 2.272694
v -1.605632 1.032260 2.075230
v -1.758450 1.032260 2.060179
v -1.905396 1.032260 2.015604
v -2.040822 1.032260 1.943217
v -2.159524 1.032260 1.845801
v -2.256940 1.032260 1.727099
v -2.329327 1.032260 1.591673
v -2.373902 1.032260 1.444727
v -2.388953 1.032260 1.291909
v -2.373902 1.032260 1.139090
v -2.329327 1.032260 0.992145
v -2.256940 1.032260 0.856719
v -2.159524 1.032260 0.738017
v -2.040822 1.032260 0.640601
v -1.905396 1.032260 0.568214
v -1.758450 1.032260 0.523638
v -1.605632 1.032260 0.508587
v -1.452813 1.032260 0.523638
v -1.305868 1.032260 0.568214
v -1.170442 1.032260 0.640601
v -1.051740 1.032260 0.738017
v -0.954324 1.032260 0.856719
v -0.881937 1.032260 0.992145
v -0.837362 1.032260 1.139090
v -0.822310 1.032260 1.291909
v -0.837362 1.032260 1.444727
v -0.881937 1.032260 1.591673
v -0.954324 1.032260 1.727099
v -1.051740 1.032260 1.845801
v -1.170442 1.032260 1.943217
v -1.305868 1.032260 2.015604
v -1.452813 1.032260 2.060179
v -1.605632 1.301718 2.291909
v -1.800722 1.301718 2.272694
v -1.988315 1.301718 2.215788
v -2.161202 1.301718 2.123378
v -2.312739 1.301718 1.999016
v -2.437101 1.301718 1.847479
v -2.529511 1.301718 1.674592
v -2.586417 1.301718 1.486999
v -2.605632 1.301718 1.291909
v -2.586417 1.301718 1.096818
v -2.529511 1.301718 0.909225
v -2.437101 1.301718 0.736339
v -2.312739 1.301718 0.584802
v -2.161202 1.301718 0.460439
v -1.988315 1.301718 0.368029
v -1.800722 1.301718 0.311123
v -1.605632 1.301718 0.291909
v -1.410542 1.301718 0.311123
v -1.222948 1.301718 0.368029
v -1.050062 1.301718 0.460439
v -0.898525 1.301718 0.584802
v -0.774162 1.301718 0.736339
v -0.681752 1.301718 0.909225
v -0.624847 1.301718 1.096818
v -0.605632 1.301718 1.291909
v -0.624847 1.301718 1.486999
v -0.681752 1.301718 1.674592
v -0.774162 1.301718 1.847479
v -0.898525 1.301718 1.999016
v -1.050062 1.301718 2.123378
v -1.222948 1.301718 2.215788
v -1.410542 1.301718 2.272694
v -1.605632 1.301718 2.075230
v -1.758450 1.301718 2.060179
v -1.905396 1.301718 2.015604
v -2.040822 1.301718 1.943217
v -2.159524 1.301718 1.845801
v -2.256940 1.301718 1.727099
v -2.329327 1.301718 1.591673
v -2.373902 1.301718 1.444727
v -2.388953 1.301718 1.291909
v -2.373902 1.301718 1.139090
v -2.329327 1.301718 0.992145
v -2.256940 1.301718 0.856719
v -2.159524 1.301718 0.738017
v -2.040822 1.301718 0.640601
v -1.905396 1.301718 0.568214
v -1.758450 1.301718 0.523638
v -1.605632 1.301718 0.508587
v -1.452813 1.301718 0.523638
v -1.305868 1.301718 0.568214
v -1.170442 1.301718 0.640601
v -1.051740 1.301718 0.738017
v -0.954324 1.301718 0.856719
v -0.881937 1.301718 0.992145
v -0.837362 1.301718 1.139090
v -0.822310 1.301718 1.291909
v -0.837362 1.301718 1.444727
v -0.881937 1.301718 1.591673
v -0.954324 1.301718 1.727099
v -1.051740 1.301718 1.845801
v -1.170442 1.301718 1.943217
v -1.305868 1.301718 2.015604
v -1.452813 1.301718 2.060179
v -1.689560 1.345892 1.494529
v -1.689560 0.988082 1.494529
v -1.727476 1.345892 1.474262
v -1.727476 0.988082 1.474262
v -1.760710 1.345892 1.446987
v -1.760710 0.988082 1.446987
v -1.787985 1.345892 1.413753
v -1.787985 0.988082 1.413753
v -1.808252 1.345892 1.375837
v -1.808252 0.988082 1.375837
v -1.820732 1.345892 1.334695
v -1.820732 0.988082 1.334695
v -1.824946 1.345892 1.291909
v -1.824946 0.988082 1.291909
v -1.820732 1.345892 1.249122
v -1.820732 0.988082 1.249122
v -1.808252 1.345892 1.207980
v -1.808252 0.988082 1.207980
v -1.787985 1.345892 1.170064
v -1.787985 0.988082 1.170064
v -1.760710 1.345892 1.136830
v -1.760710 0.988082 1.136830
v -1.727476 1.345892 1.109555
v -1.727476 0.988082 1.109555
v -1.689560 1.345892 1.089288
v -1.689560 0.988082 1.089288
v -1.648418 1.345892 1.076808
v -1.648418 0.988082 1.076808
v -1.605632 1.345892 1.072594
v -1.605632 0.988082 1.072594
v -1.562846 1.345892 1.076808
v -1.562846 0.988082 1.076808
v -1.521704 1.345892 1.089288
v -1.521704 0.988082 1.089288
v -1.483787 1.345892 1.109555
v -1.483787 0.988082 1.109555
v -1.450553 1.345892 1.136830
v -1.450553 0.988082 1.136830
v -1.423278 1.345892 1.170064
v -1.423278 0.988082 1.170064
v -1.403012 1.345892 1.207980
v -1.403012 0.988082 1.207980
v -1.390531 1.345892 1.249122
v -1.390531 0.988082 1.249122
v -1.386317 1.345892 1.291909
v -1.386317 0.988082 1.291909
v -1.390531 1.345892 1.334695
v -1.390531 0.988082 1.334695
v -1.403012 1.345892 1.375837
v -1.403012 0.988082 1.375837
v -1.423278 1.345892 1.413753
v -1.423278 0.988082 1.413753
v -1.450553 1.345892 1.446987
v -1.450553 0.988082 1.446987
v -1.483787 1.345892 1.474262
v -1.483787 0.988082 1.474262
v -1.521704 1.345892 1.494529
v -1.521704 0.988082 1.494529
v -1.562846 1.345892 1.507009
v -1.562846 0.988082 1.507009
v -1.605632 1.345892 1.511223
v -1.605632 0.988082 1.511223
v -1.648418 0.988082 1.507009
v -1.648418 1.345892 1.507009
v -1.717682 1.114358 1.409181
v -1.717682 1.219617 1.409181
v -1.717682 1.114358 2.099023
v -1.717682 1.219617 2.099023
v -1.493582 1.114358 1.409181
v -1.493582 1.219617 1.409181
v -1.493582 1.114358 2.099023
v -1.493582 1.219617 2.099023
v -1.763218 1.114358 1.253506
v -1.763218 1.219617 1.253506
v -2.360638 1.114358 1.598427
v -2.360638 1.219617 1.598427
v -1.651168 1.114358 1.447583
v -1.651168 1.219617 1.447583
v -2.248588 1.114358 1.792504
v -2.248588 1.219617 1.792504
v -1.651168 1.114358 1.136234
v -1.651168 1.219617 1.136234
v -2.248588 1.114358 0.791313
v -2.248588 1.219617 0.791313
v -1.763218 1.114358 1.330310
v -1.763218 1.219617 1.330310
v -2.360638 1.114358 0.985389
v -2.360638 1.219617 0.985389
v -1.493581 1.114358 1.174636
v -1.493581 1.219617 1.174636
v -1.493581 1.114358 0.484794
v -1.493581 1.219617 0.484794
v -1.717682 1.114358 1.174636
v -1.717682 1.219617 1.174636
v -1.717682 1.114358 0.484794
v -1.717682 1.219617 0.484794
v -1.448045 1.114358 1.330311
v -1.448045 1.219617 1.330311
v -0.850625 1.114358 0.985390
v -0.850625 1.219617 0.985390
v -1.560095 1.114358 1.136234
v -1.560095 1.219617 1.136234
v -0.962675 1.114358 0.791313
v -0.962675 1.219617 0.791313
v -1.560095 1.114358 1.447583
v -1.560095 1.219617 1.447583
v -0.962675 1.114358 1.792504
v -0.962675 1.219617 1.792504
v -1.448045 1.114358 1.253507
v -1.448045 1.219617 1.253507
v -0.850625 1.114358 1.598427
v -0.850625 1.219617 1.598427
v 1.605632 1.032260 2.291909
v 1.800722 1.032260 2.272694
v 1.988315 1.032260 2.215788
v 2.161202 1.032260 2.123378
v 2.312739 1.032260 1.999016
v 2.437101 1.032260 1.847479
v 2.529511 1.032260 1.674592
v 2.586417 1.032260 1.486999
v 2.605632 1.032260 1.291909
v 2.586417 1.032260 1.096818
v 2.529511 1.032260 0.909225
v 2.437101 1.032260 0.736339
v 2.312739 1.032260 0.584802
v 2.161202 1.032260 0.460439
v 1.988315 1.032260 0.368029
v 1.800722 1.032260 0.311123
v 1.605632 1.032260 0.291909
v 1.410542 1.032260 0.311123
v 1.222948 1.032260 0.368029
v 1.050062 1.032260 0.460439
v 0.898525 1.032260 0.584802
v 0.774162 1.032260 0.736339
v 0.681752 1.032260 0.909225
v 0.624846 1.032260 1.096818
v 0.605632 1.032260 1.291909
v 0.624846 1.032260 1.486999
v 0.681752 1.032260 1.674592
v 0.774162 1.032260 1.847479
v 0.898525 1.032260 1.999016
v 1.050062 1.032260 2.123378
v 1.222948 1.032260 2.215788
v 1.410542 1.032260 2.272694
v 1.605632 1.032260 2.075230
v 1.758450 1.032260 2.060179
v 1.905396 1.032260 2.015604
v 2.040822 1.032260 1.943217
v 2.159524 1.032260 1.845801
v 2.256940 1.032260 1.727099
v 2.329327 1.032260 1.591673
v 2.373902 1.032260 1.444727
v 2.388953 1.032260 1.291909
v 2.373902 1.032260 1.139090
v 2.329327 1.032260 0.992145
v 2.256940 1.032260 0.856719
v 2.159524 1.032260 0.738017
v 2.040822 1.032260 0.640601
v 1.905396 1.032260 0.568214
v 1.758450 1.032260 0.523638
v 1.605632 1.032260 0.508587
v 1.452813 1.032260 0.523638
v 1.305868 1.032260 0.568214
v 1.170442 1.032260 0.640601
v 1.051740 1.032260 0.738017
v 0.954324 1.032260 0.856719
v 0.881937 1.032260 0.992145
v 0.837362 1.032260 1.139090
v 0.822310 1.032260 1.291909
v 0.837362 1.032260 1.444727
v 0.881937 1.032260 1.591673
v 0.954324 1.032260 1.727099
v 1.051740 1.032260 1.845801
v 1.170442 1.032260 1.943217
v 1.305868 1.032260 2.015604
v 1.452813 1.032260 2.060179
v 1.605632 1.301718 2.291909
v 1.800722 1.301718 2.272694
v 1.988315 1.301718 2.215788
v 2.161202 1.301718 2.123378
v 2.312739 1.301718 1.999016
v 2.437101 1.301718 1.847479
v 2.529511 1.301718 1.674592
v 2.586417 1.301718 1.486999
v 2.605632 1.301718 1.291909
v 2.586417 1.301718 1.096818
v 2.529511 1.301718 0.909225
v 2.437101 1.301718 0.736339
v 2.312739 1.301718 0.584802
v 2.161202 1.301718 0.460439
v 1.988315 1.301718 0.368029
v 1.800722 1.301718 0.311123
v 1.605632 1.301718 0.291909
v 1.410542 1.301718 0.311123
v 1.222948 1.301718 0.368029
v 1.050062 1.301718 0.460439
v 0.898525 1.301718 0.584802
v 0.774162 1.301718 0.736339
v 0.681752 1.301718 0.909225
v 0.624846 1.301718 1.096818
v 0.605632 1.301718 1.291909
v 0.624846 1.301718 1.486999
v 0.681752 1.301718 1.674592
v 0.774162 1.301718 1.847479
v 0.898525 1.301718 1.999016
v 1.050062 1.301718 2.123378
v 1.222948 1.301718 2.215788
v 1.410542 1.301718 2.272694
v 1.605632 1.301718 2.075230
v 1.758450 1.301718 2.060179
v 1.905396 1.301718 2.015604
v 2.040822 1.301718 1.943217
v 2.159524 1.301718 1.845801
v 2.256940 1.301718 1.727099
v 2.329327 1.301718 1.591673
v 2.373902 1.301718 1.444727
v 2.388953 1.301718 1.291909
v 2.373902 1.301718 1.139090
v 2.329327 1.301718 0.992145
v 2.256940 1.301718 0.856719
v 2.159524 1.301718 0.738017
v 2.040822 1.301718 0.640601
v 1.905396 1.301718 0.568214
v 1.758450 1.301718 0.523638
v 1.605632 1.301718 0.508587
v 1.452813 1.301718 0.523638
v 1.305868 1.301718 0.568214
v 1.170442 1.301718 0.640601
v 1.051740 1.301718 0.738017
v 0.954324 1.301718 0.856719
v 0.881937 1.301718 0.992145
v 0.837362 1.301718 1.139090
v 0.822310 1.301718 1.291909
v 0.837362 1.301718 1.444727
v 0.881937 1.301718 1.591673
v 0.954324 1.301718 1.727099
v 1.051740 1.301718 1.845801
v 1.170442 1.301718 1.943217
v 1.305868 1.301718 2.015604
v 1.452813 1.301718 2.060179
v 1.689560 1.345892 1.494529
v 1.689560 0.988082 1.494529
v 1.727476 1.345892 1.474262
v 1.727476 0.988082 1.474262
v 1.760710 1.345892 1.446987
v 1.760710 0.988082 1.446987
v 1.787985 1.345892 1.413753
v 1.787985 0.988082 1.413753
v 1.808252 1.345892 1.375837
v 1.808252 0.988082 1.375837
v 1.820732 1.345892 1.334695
v 1.820732 0.988082 1.334695
v 1.824946 1.345892 1.291909
v 1.824946 0.988082 1.291909
v 1.820732 1.345892 1.249122
v 1.820732 0.988082 1.249122
v 1.808252 1.345892 1.207980
v 1.808252 0.988082 1.207980
v 1.787985 1.345892 1.170064
v 1.787985 0.988082 1.170064
v 1.760710 1.345892 1.136830
v 1.760710 0.988082 1.136830
v 1.727476 1.345892 1.109555
v 1.727476 0.988082 1.109555
v 1.689560 1.345892 1.089288
v 1.689560 0.988082 1.089288
v 1.648418 1.345892 1.076808
v 1.648418 0.988082 1.076808
v 1.605632 1.345892 1.072594
v 1.605632 0.988082 1.072594
v 1.562845 1.345892 1.076808
v 1.562845 0.988082 1.076808
v 1.521704 1.345892 1.089288
v 1.521704 0.988082 1.089288
v 1.483787 1.345892 1.109555
v 1.483787 0.988082 1.109555
v 1.450553 1.345892 1.136830
v 1.450553 0.988082 1.136830
v 1.423278 1.345892 1.170064
v 1.423278 0.988082 1.170064
v 1.403012 1.345892 1.207980
v 1.403012 0.988082 1.207980
v 1.390531 1.345892 1.249122
v 1.390531 0.988082 1.249122
v 1.386317 1.345892 1.291909
v 1.386317 0.988082 1.291909
v 1.390531 1.345892 1.334695
v 1.390531 0.988082 1.334695
v 1.403012 1.345892 1.375837
v 1.403012 0.988082 1.375837
v 1.423278 1.345892 1.413753
v 1.423278 0.988082 1.413753
v 1.450553 1.345892 1.446987
v 1.450553 0.988082 1.446987
v 1.483787 1.345892 1.474262
v 1.483787 0.988082 1.474262
v 1.521704 1.345892 1.494529
v 1.521704 0.988082 1.494529
v 1.562845 1.345892 1.507009
v 1.562845 0.988082 1.507009
v 1.605632 1.345892 1.511223
v 1.605632 0.988082 1.511223
v 1.648418 0.988082 1.507009
v 1.648418 1.345892 1.507009
v 1.717682 1.114358 1.409181
v 1.717682 1.219617 1.409181
v 1.717682 1.114358 2.099023
v 1.717682 1.219617 2.099023
v 1.493582 1.114358 1.409181
v 1.493582 1.219617 1.409181
v 1.493582 1.114358 2.099023
v 1.493582 1.219617 2.099023
v 1.763218 1.114358 1.253506
v 1.763218 1.219617 1.253506
v 2.360638 1.114358 1.598427
v 2.360638 1.219617 1.598427
v 1.651168 1.114358 1.447583
v 1.651168 1.219617 1.447583
v 2.248588 1.114358 1.792504
v 2.248588 1.219617 1.792504
v 1.651168 1.114358 1.136234
v 1.651168 1.219617 1.136234
v 2.248588 1.114358 0.791313
v 2.248588 1.219617 0.791313
v 1.763218 1.114358 1.330310
v 1.763218 1.219617 1.330310
v 2.360638 1.114358 0.985389
v 2.360638 1.219617 0.985389
v 1.493581 1.114358 1.174636
v 1.493581 1.219617 1.174636
v 1.493581 1.114358 0.484794
v 1.493581 1.219617 0.484794
v 1.717682 1.114358 1.174636
v 1.717682 1.219617 1.174636
v 1.717682 1.114358 0.484794
v 1.717682 1.219617 0.484794
v 1.448045 1.114358 1.330311
v 1.448045 1.219617 1.330311
v 0.850625 1.114358 0.985390
v 0.850625 1.219617 0.985390
v 1.560095 1.114358 1.136234
v 1.560095 1.219617 1.136234
v 0.962675 1.114358 0.791313
v 0.962675 1.219617 0.791313
v 1.560096 1.114358 1.447583
v 1.560096 1.219617 1.447583
v 0.962675 1.114358 1.792504
v 0.962675 1.219617 1.792504
v 1.448045 1.114358 1.253507
v 1.448045 1.219617 1.253507
v 0.850625 1.114358 1.598427
v 0.850625 1.219617 1.598427
vn -0.0000 -1.0000 -0.0000
vn -0.0000 1.0000 -0.0000
vn 0.2903 -0.0000 0.9569
vn 0.6344 -0.0000 -0.7730
vn 0.4714 -0.0000 0.8819
vn 0.4714 -0.0000 -0.8819
vn 0.6344 -0.0000 0.7730
vn 0.2903 -0.0000 -0.9569
vn 0.7730 -0.0000 0.6344
vn 0.0980 -0.0000 -0.9952
vn 0.8819 -0.0000 0.4714
vn -0.0980 -0.0000 -0.9952
vn 0.9569 -0.0000 0.2903
vn -0.2903 -0.0000 -0.9569
vn 0.9952 -0.0000 0.0980
vn -0.4714 -0.0000 -0.8819
vn 0.9952 -0.0000 -0.0980
vn -0.6344 -0.0000 -0.7730
vn 0.9569 -0.0000 -0.2903
vn -0.7730 -0.0000 -0.6344
vn 0.8819 -0.0000 -0.4714
vn -0.8819 -0.0000 -0.4714
vn 0.7730 -0.0000 -0.6344
vn -0.9569 -0.0000 -0.2903
vn -0.9952 -0.0000 -0.0980
vn -0.9952 -0.0000 0.0980
vn -0.9569 -0.0000 0.2903
vn -0.8819 -0.0000 0.4714
vn 0.0980 -0.0000 0.9952
vn -0.7730 -0.0000 0.6344
vn -0.6344 -0.0000 0.7730
vn -0.4714 -0.0000 0.8819
vn -0.2903 -0.0000 0.9569
vn -0.0980 -0.0000 0.9952
vn -1.0000 -0.0000 -0.0000
vn -0.0000 -0.0000 -1.0000
vn 1.0000 -0.0000 -0.0000
vn -0.0000 -0.0000 1.0000
vn -0.5000 -0.0000 0.8660
vn -0.8660 -0.0000 -0.5000
vn 0.5000 -0.0000 -0.8660
vn 0.8660 -0.0000 0.5000
vn 0.5000 -0.0000 0.8660
vn -0.8660 -0.0000 0.5000
vn -0.5000 -0.0000 -0.8660
vn 0.8660 -0.0000 -0.5000
vt 0.000000 0.000000
vt 1.000000 0.500000
vt 1.000000 1.000000
vt 0.968750 1.000000
vt 0.968750 0.500000
vt 0.116663 0.449553
vt 0.080294 0.419706
vt 0.050447 0.383337
vt 0.028269 0.341844
vt 0.014612 0.296822
vt 0.010000 0.250000
vt 0.014612 0.203178
vt 0.028269 0.158156
vt 0.050447 0.116663
vt 0.080294 0.080294
vt 0.116663 0.050447
vt 0.158156 0.028269
vt 0.203178 0.014612
vt 0.250000 0.010000
vt 0.296822 0.014612
vt 0.341844 0.028269
vt 0.383337 0.050447
vt 0.419706 0.080294
vt 0.449553 0.116663
vt 0.471731 0.158156
vt 0.485388 0.203178
vt 0.490000 0.250000
vt 0.485388 0.296822
vt 0.471731 0.341844
vt 0.449553 0.383337
vt 0.419706 0.419706
vt 0.383337 0.449553
vt 0.341844 0.471731
vt 0.296822 0.485388
vt 0.250000 0.490000
vt 0.203178 0.485388
vt 0.158156 0.471731
vt 0.937500 1.000000
vt 0.937500 0.500000
vt 0.906250 1.000000
vt 0.906250 0.500000
vt 0.875000 1.000000
vt 0.875000 0.500000
vt 0.550447 0.116663
vt 0.528269 0.158156
vt 0.514612 0.203178
vt 0.510000 0.250000
vt 0.514612 0.296822
vt 0.528269 0.341844
vt 0.550447 0.383337
vt 0.580294 0.419706
vt 0.616663 0.449553
vt 0.658156 0.471731
vt 0.703178 0.485388
vt 0.750000 0.490000
vt 0.796822 0.485388
vt 0.841844 0.471731
vt 0.883337 0.449553
vt 0.919706 0.419706
vt 0.949553 0.383337
vt 0.971731 0.341844
vt 0.985388 0.296822
vt 0.990000 0.250000
vt 0.985388 0.203178
vt 0.971731 0.158156
vt 0.949553 0.116663
vt 0.919706 0.080294
vt 0.883337 0.050447
vt 0.841844 0.028269
vt 0.796822 0.014612
vt 0.750000 0.010000
vt 0.703178 0.014612
vt 0.658156 0.028269
vt 0.616663 0.050447
vt 0.580294 0.080294
vt 0.843750 1.000000
vt 0.843750 0.500000
vt 0.812500 1.000000
vt 0.812500 0.500000
vt 0.781250 1.000000
vt 0.781250 0.500000
vt 0.750000 1.000000
vt 0.750000 0.500000
vt 0.718750 1.000000
vt 0.718750 0.500000
vt 0.687500 1.000000
vt 0.687500 0.500000
vt 0.656250 1.000000
vt 0.656250 0.500000
vt 0.625000 1.000000
vt 0.625000 0.500000
vt 0.593750 1.000000
vt 0.593750 0.500000
vt 0.562500 1.000000
vt 0.562500 0.500000
vt 0.531250 1.000000
vt 0.531250 0.500000
vt 0.500000 1.000000
vt 0.500000 0.500000
vt 0.468750 1.000000
vt 0.468750 0.500000
vt 0.437500 1.000000
vt 0.437500 0.500000
vt 0.406250 1.000000
vt 0.406250 0.500000
vt 0.375000 1.000000
vt 0.375000 0.500000
vt 0.343750 1.000000
vt 0.343750 0.500000
vt 0.312500 1.000000
vt 0.312500 0.500000
vt 0.281250 1.000000
vt 0.281250 0.500000
vt 0.250000 1.000000
vt 0.250000 0.500000
vt 0.218750 1.000000
vt 0.218750 0.500000
vt 0.187500 1.000000
vt 0.187500 0.500000
vt 0.156250 1.000000
vt 0.156250 0.500000
vt 0.125000 1.000000
vt 0.125000 0.500000
vt 0.093750 1.000000
vt 0.093750 0.500000
vt 0.062500 1.000000
vt 0.062500 0.500000
vt 0.031250 1.000000
vt 0.031250 0.500000
vt 0.000000 1.000000
vt 0.000000 0.500000
vt 0.375000 0.000000
vt 0.625000 0.000000
vt 0.625000 0.250000
vt 0.375000 0.250000
vt 0.625000 0.750000
vt 0.375000 0.750000
vt 0.125000 0.750000
vt 0.875000 0.750000
s 0
f 41/15/7 9/15/7 40/15/7 72/15/7
f 72/15/7 40/15/7 39/15/7 71/15/7
f 71/15/7 39/15/7 38/15/7 70/15/7
f 70/15/7 38/15/7 37/15/7 69/15/7
f 69/15/7 37/15/7 36/15/7 68/15/7
f 68/15/7 36/15/7 35/15/7 67/15/7
f 67/15/7 35/15/7 34/15/7 66/15/7
f 66/15/7 34/15/7 33/15/7 65/15/7
f 65/15/7 33/15/7 32/15/7 64/15/7
f 64/15/7 32/15/7 31/15/7 63/15/7
f 63/15/7 31/15/7 30/15/7 62/15/7
f 62/15/7 30/15/7 29/15/7 61/15/7
f 61/15/7 29/15/7 28/15/7 60/15/7
f 60/15/7 28/15/7 27/15/7 59/15/7
f 59/15/7 27/15/7 26/15/7 58/15/7
f 58/15/7 26/15/7 25/15/7 57/15/7
f 57/15/7 25/15/7 24/15/7 56/15/7
f 56/15/7 24/15/7 23/15/7 55/15/7
f 55/15/7 23/15/7 22/15/7 54/15/7
f 54/15/7 22/15/7 21/15/7 53/15/7
f 53/15/7 21/15/7 20/15/7 52/15/7
f 52/15/7 20/15/7 19/15/7 51/15/7
f 51/15/7 19/15/7 18/15/7 50/15/7
f 50/15/7 18/15/7 17/15/7 49/15/7
f 49/15/7 17/15/7 16/15/7 48/15/7
f 48/15/7 16/15/7 15/15/7 47/15/7
f 47/15/7 15/15/7 14/15/7 46/15/7
f 46/15/7 14/15/7 13/15/7 45/15/7
f 45/15/7 13/15/7 12/15/7 44/15/7
f 44/15/7 12/15/7 11/15/7 43/15/7
f 43/15/7 11/15/7 10/15/7 42/15/7
f 42/15/7 10/15/7 9/15/7 41/15/7
f 105/15/8 136/15/8 104/15/8 73/15/8
f 136/15/8 135/15/8 103/15/8 104/15/8
f 135/15/8 134/15/8 102/15/8 103/15/8
f 134/15/8 133/15/8 101/15/8 102/15/8
f 133/15/8 132/15/8 100/15/8 101/15/8
f 132/15/8 131/15/8 99/15/8 100/15/8
f 131/15/8 130/15/8 98/15/8 99/15/8
f 130/15/8 129/15/8 97/15/8 98/15/8
f 129/15/8 128/15/8 96/15/8 97/15/8
f 128/15/8 127/15/8 95/15/8 96/15/8
f 127/15/8 126/15/8 94/15/8 95/15/8
f 126/15/8 125/15/8 93/15/8 94/15/8
f 125/15/8 124/15/8 92/15/8 93/15/8
f 124/15/8 123/15/8 91/15/8 92/15/8
f 123/15/8 122/15/8 90/15/8 91/15/8
f 122/15/8 121/15/8 89/15/8 90/15/8
f 121/15/8 120/15/8 88/15/8 89/15/8
f 120/15/8 119/15/8 87/15/8 88/15/8
f 119/15/8 118/15/8 86/15/8 87/15/8
f 118/15/8 117/15/8 85/15/8 86/15/8
f 117/15/8 116/15/8 84/15/8 85/15/8
f 116/15/8 115/15/8 83/15/8 84/15/8
f 115/15/8 114/15/8 82/15/8 83/15/8
f 114/15/8 113/15/8 81/15/8 82/15/8
f 113/15/8 112/15/8 80/15/8 81/15/8
f 112/15/8 111/15/8 79/15/8 80/15/8
f 111/15/8 110/15/8 78/15/8 79/15/8
f 110/15/8 109/15/8 77/15/8 78/15/8
f 109/15/8 108/15/8 76/15/8 77/15/8
f 108/15/8 107/15/8 75/15/8 76/15/8
f 107/15/8 106/15/8 74/15/8 75/15/8
f 106/15/8 105/15/8 73/15/8 74/15/8
f 26/15/9 27/15/9 91/15/9 90/15/9
f 54/15/10 53/15/10 117/15/10 118/15/10
f 27/15/11 28/15/11 92/15/11 91/15/11
f 55/15/12 54/15/12 118/15/12 119/15/12
f 28/15/13 29/15/13 93/15/13 92/15/13
f 56/15/14 55/15/14 119/15/14 120/15/14
f 29/15/15 30/15/15 94/15/15 93/15/15
f 57/15/16 56/15/16 120/15/16 121/15/16
f 30/15/17 31/15/17 95/15/17 94/15/17
f 58/15/18 57/15/18 121/15/18 122/15/18
f 31/15/19 32/15/19 96/15/19 95/15/19
f 59/15/20 58/15/20 122/15/20 123/15/20
f 32/15/21 33/15/21 97/15/21 96/15/21
f 60/15/22 59/15/22 123/15/22 124/15/22
f 33/15/23 34/15/23 98/15/23 97/15/23
f 61/15/24 60/15/24 124/15/24 125/15/24
f 34/15/25 35/15/25 99/15/25 98/15/25
f 62/15/26 61/15/26 125/15/26 126/15/26
f 35/15/27 36/15/27 100/15/27 99/15/27
f 9/15/18 10/15/18 74/15/18 73/15/18
f 63/15/28 62/15/28 126/15/28 127/15/28
f 36/15/29 37/15/29 101/15/29 100/15/29
f 10/15/20 11/15/20 75/15/20 74/15/20
f 64/15/30 63/15/30 127/15/30 128/15/30
f 37/15/10 38/15/10 102/15/10 101/15/10
f 11/15/22 12/15/22 76/15/22 75/15/22
f 65/15/31 64/15/31 128/15/31 129/15/31
f 38/15/12 39/15/12 103/15/12 102/15/12
f 12/15/24 13/15/24 77/15/24 76/15/24
f 66/15/32 65/15/32 129/15/32 130/15/32
f 39/15/14 40/15/14 104/15/14 103/15/14
f 13/15/26 14/15/26 78/15/26 77/15/26
f 67/15/33 66/15/33 130/15/33 131/15/33
f 40/15/16 9/15/16 73/15/16 104/15/16
f 14/15/28 15/15/28 79/15/28 78/15/28
f 68/15/34 67/15/34 131/15/34 132/15/34
f 42/15/35 41/15/35 105/15/35 106/15/35
f 15/15/30 16/15/30 80/15/30 79/15/30
f 69/15/36 68/15/36 132/15/36 133/15/36
f 43/15/9 42/15/9 106/15/9 107/15/9
f 16/15/31 17/15/31 81/15/31 80/15/31
f 70/15/37 69/15/37 133/15/37 134/15/37
f 44/15/11 43/15/11 107/15/11 108/15/11
f 17/15/32 18/15/32 82/15/32 81/15/32
f 71/15/38 70/15/38 134/15/38 135/15/38
f 45/15/13 44/15/13 108/15/13 109/15/13
f 18/15/33 19/15/33 83/15/33 82/15/33
f 72/15/39 71/15/39 135/15/39 136/15/39
f 46/15/15 45/15/15 109/15/15 110/15/15
f 19/15/34 20/15/34 84/15/34 83/15/34
f 41/15/40 72/15/40 136/15/40 105/15/40
f 47/15/17 46/15/17 110/15/17 111/15/17
f 20/15/36 21/15/36 85/15/36 84/15/36
f 48/15/19 47/15/19 111/15/19 112/15/19
f 21/15/37 22/15/37 86/15/37 85/15/37
f 49/15/21 48/15/21 112/15/21 113/15/21
f 22/15/38 23/15/38 87/15/38 86/15/38
f 50/15/23 49/15/23 113/15/23 114/15/23
f 23/15/39 24/15/39 88/15/39 87/15/39
f 51/15/25 50/15/25 114/15/25 115/15/25
f 24/15/40 25/15/40 89/15/40 88/15/40
f 52/15/27 51/15/27 115/15/27 116/15/27
f 25/15/35 26/15/35 90/15/35 89/15/35
f 53/15/29 52/15/29 116/15/29 117/15/29
f 199/16/18 200/17/18 197/18/18 198/19/18
f 139/20/8 141/21/8 143/22/8 145/23/8 147/24/8 149/25/8 151/26/8 153/27/8 155/28/8 157/29/8 159/30/8 161/31/8 163/32/8 165/33/8 167/34/8 169/35/8 171/36/8 173/37/8 175/38/8 177/39/8 179/40/8 181/41/8 183/42/8 185/43/8 187/44/8 189/45/8 191/46/8 193/47/8 195/48/8 197/49/8 200/50/8 137/51/8
f 198/19/16 197/18/16 195/52/16 196/53/16
f 158/53/36 157/52/36 155/54/36 156/55/36
f 138/55/20 137/54/20 200/56/20 199/57/20
f 156/58/7 154/59/7 152/60/7 150/61/7 148/62/7 146/63/7 144/64/7 142/65/7 140/66/7 138/67/7 199/68/7 198/69/7 196/70/7 194/71/7 192/72/7 190/73/7 188/74/7 186/75/7 184/76/7 182/77/7 180/78/7 178/79/7 176/80/7 174/81/7 172/82/7 170/83/7 168/84/7 166/85/7 164/86/7 162/87/7 160/88/7 158/89/7
f 196/57/14 195/56/14 193/90/14 194/91/14
f 160/91/37 159/90/37 157/92/37 158/93/37
f 140/93/22 139/92/22 137/94/22 138/95/22
f 194/95/12 193/94/12 191/96/12 192/97/12
f 162/97/38 161/96/38 159/98/38 160/99/38
f 142/99/24 141/98/24 139/100/24 140/101/24
f 192/101/10 191/100/10 189/102/10 190/103/10
f 164/103/39 163/102/39 161/104/39 162/105/39
f 144/105/26 143/104/26 141/106/26 142/107/26
f 190/107/29 189/106/29 187/108/29 188/109/29
f 166/109/40 165/108/40 163/110/40 164/111/40
f 146/111/28 145/110/28 143/112/28 144/113/28
f 188/113/27 187/112/27 185/114/27 186/115/27
f 168/115/35 167/114/35 165/116/35 166/117/35
f 148/117/30 147/116/30 145/118/30 146/119/30
f 186/119/25 185/118/25 183/120/25 184/121/25
f 170/121/9 169/120/9 167/122/9 168/123/9
f 150/123/31 149/122/31 147/124/31 148/125/31
f 184/125/23 183/124/23 181/126/23 182/127/23
f 172/127/11 171/126/11 169/128/11 170/129/11
f 152/129/32 151/128/32 149/130/32 150/131/32
f 182/131/21 181/130/21 179/132/21 180/133/21
f 174/133/13 173/132/13 171/134/13 172/135/13
f 154/135/33 153/134/33 151/136/33 152/137/33
f 180/137/19 179/136/19 177/138/19 178/139/19
f 176/139/15 175/138/15 173/140/15 174/141/15
f 178/141/17 177/140/17 175/142/17 176/143/17
f 156/143/34 155/142/34 153/144/34 154/145/34
f 201/146/41 202/147/41 204/148/41 203/149/41
f 203/149/42 204/148/42 208/105/42 207/121/42
f 207/121/43 208/105/43 206/150/43 205/151/43
f 205/151/44 206/150/44 202/104/44 201/120/44
f 203/137/7 207/121/7 205/151/7 201/152/7
f 208/105/8 204/57/8 202/153/8 206/150/8
f 209/146/45 210/147/45 212/148/45 211/149/45
f 211/149/46 212/148/46 216/105/46 215/121/46
f 215/121/47 216/105/47 214/150/47 213/151/47
f 213/151/48 214/150/48 210/104/48 209/120/48
f 211/137/7 215/121/7 213/151/7 209/152/7
f 216/105/8 212/57/8 210/153/8 214/150/8
f 217/146/49 218/147/49 220/148/49 219/149/49
f 219/149/50 220/148/50 224/105/50 223/121/50
f 223/121/51 224/105/51 222/150/51 221/151/51
f 221/151/52 222/150/52 218/104/52 217/120/52
f 219/137/7 223/121/7 221/151/7 217/152/7
f 224/105/8 220/57/8 218/153/8 222/150/8
f 225/146/43 226/147/43 228/148/43 227/149/43
f 227/149/44 228/148/44 232/105/44 231/121/44
f 231/121/41 232/105/41 230/150/41 229/151/41
f 229/151/42 230/150/42 226/104/42 225/120/42
f 227/137/7 231/121/7 229/151/7 225/152/7
f 232/105/8 228/57/8 226/153/8 230/150/8
f 233/146/47 234/147/47 236/148/47 235/149/47
f 235/149/48 236/148/48 240/105/48 239/121/48
f 239/121/45 240/105/45 238/150/45 237/151/45
f 237/151/46 238/150/46 234/104/46 233/120/46
f 235/137/7 239/121/7 237/151/7 233/152/7
f 240/105/8 236/57/8 234/153/8 238/150/8
f 241/146/51 242/147/51 244/148/51 243/149/51
f 243/149/52 244/148/52 248/105/52 247/121/52
f 247/121/49 248/105/49 246/150/49 245/151/49
f 245/151/50 246/150/50 242/104/50 241/120/50
f 243/137/7 247/121/7 245/151/7 241/152/7
f 248/105/8 244/57/8 242/153/8 246/150/8
f 281/15/7 312/15/7 280/15/7 249/15/7
f 312/15/7 311/15/7 279/15/7 280/15/7
f 311/15/7 310/15/7 278/15/7 279/15/7
f 310/15/7 309/15/7 277/15/7 278/15/7
f 309/15/7 308/15/7 276/15/7 277/15/7
f 308/15/7 307/15/7 275/15/7 276/15/7
f 307/15/7 306/15/7 274/15/7 275/15/7
f 306/15/7 305/15/7 273/15/7 274/15/7
f 305/15/7 304/15/7 272/15/7 273/15/7
f 304/15/7 303/15/7 271/15/7 272/15/7
f 303/15/7 302/15/7 270/15/7 271/15/7
f 302/15/7 301/15/7 269/15/7 270/15/7
f 301/15/7 300/15/7 268/15/7 269/15/7
f 300/15/7 299/15/7 267/15/7 268/15/7
f 299/15/7 298/15/7 266/15/7 267/15/7
f 298/15/7 297/15/7 265/15/7 266/15/7
f 297/15/7 296/15/7 264/15/7 265/15/7
f 296/15/7 295/15/7 263/15/7 264/15/7
f 295/15/7 294/15/7 262/15/7 263/15/7
f 294/15/7 293/15/7 261/15/7 262/15/7
f 293/15/7 292/15/7 260/15/7 261/15/7
f 292/15/7 291/15/7 259/15/7 260/15/7
f 291/15/7 290/15/7 258/15/7 259/15/7
f 290/15/7 289/15/7 257/15/7 258/15/7
f 289/15/7 288/15/7 256/15/7 257/15/7
f 288/15/7 287/15/7 255/15/7 256/15/7
f 287/15/7 286/15/7 254/15/7 255/15/7
f 286/15/7 285/15/7 253/15/7 254/15/7
f 285/15/7 284/15/7 252/15/7 253/15/7
f 284/15/7 283/15/7 251/15/7 252/15/7
f 283/15/7 282/15/7 250/15/7 251/15/7
f 282/15/7 281/15/7 249/15/7 250/15/7
f 345/15/8 313/15/8 344/15/8 376/15/8
f 376/15/8 344/15/8 343/15/8 375/15/8
f 375/15/8 343/15/8 342/15/8 374/15/8
f 374/15/8 342/15/8 341/15/8 373/15/8
f 373/15/8 341/15/8 340/15/8 372/15/8
f 372/15/8 340/15/8 339/15/8 371/15/8
f 371/15/8 339/15/8 338/15/8 370/15/8
f 370/15/8 338/15/8 337/15/8 369/15/8
f 369/15/8 337/15/8 336/15/8 368/15/8
f 368/15/8 336/15/8 335/15/8 367/15/8
f 367/15/8 335/15/8 334/15/8 366/15/8
f 366/15/8 334/15/8 333/15/8 365/15/8
f 365/15/8 333/15/8 332/15/8 364/15/8
f 364/15/8 332/15/8 331/15/8 363/15/8
f 363/15/8 331/15/8 330/15/8 362/15/8
f 362/15/8 330/15/8 329/15/8 361/15/8
f 361/15/8 329/15/8 328/15/8 360/15/8
f 360/15/8 328/15/8 327/15/8 359/15/8
f 359/15/8 327/15/8 326/15/8 358/15/8
f 358/15/8 326/15/8 325/15/8 357/15/8
f 357/15/8 325/15/8 324/15/8 356/15/8
f 356/15/8 324/15/8 323/15/8 355/15/8
f 355/15/8 323/15/8 322/15/8 354/15/8
f 354/15/8 322/15/8 321/15/8 353/15/8
f 353/15/8 321/15/8 320/15/8 352/15/8
f 352/15/8 320/15/8 319/15/8 351/15/8
f 351/15/8 319/15/8 318/15/8 350/15/8
f 350/15/8 318/15/8 317/15/8 349/15/8
f 349/15/8 317/15/8 316/15/8 348/15/8
f 348/15/8 316/15/8 315/15/8 347/15/8
f 347/15/8 315/15/8 314/15/8 346/15/8
f 346/15/8 314/15/8 313/15/8 345/15/8
f 266/15/39 330/15/39 331/15/39 267/15/39
f 294/15/24 358/15/24 357/15/24 293/15/24
f 267/15/38 331/15/38 332/15/38 268/15/38
f 295/15/22 359/15/22 358/15/22 294/15/22
f 268/15/37 332/15/37 333/15/37 269/15/37
f 296/15/20 360/15/20 359/15/20 295/15/20
f 269/15/36 333/15/36 334/15/36 270/15/36
f 297/15/18 361/15/18 360/15/18 296/15/18
f 270/15/34 334/15/34 335/15/34 271/15/34
f 298/15/16 362/15/16 361/15/16 297/15/16
f 271/15/33 335/15/33 336/15/33 272/15/33
f 299/15/14 363/15/14 362/15/14 298/15/14
f 272/15/32 336/15/32 337/15/32 273/15/32
f 300/15/12 364/15/12 363/15/12 299/15/12
f 273/15/31 337/15/31 338/15/31 274/15/31
f 301/15/10 365/15/10 364/15/10 300/15/10
f 274/15/30 338/15/30 339/15/30 275/15/30
f 302/15/29 366/15/29 365/15/29 301/15/29
f 275/15/28 339/15/28 340/15/28 276/15/28
f 249/15/16 313/15/16 314/15/16 250/15/16
f 303/15/27 367/15/27 366/15/27 302/15/27
f 276/15/26 340/15/26 341/15/26 277/15/26
f 250/15/14 314/15/14 315/15/14 251/15/14
f 304/15/25 368/15/25 367/15/25 303/15/25
f 277/15/24 341/15/24 342/15/24 278/15/24
f 251/15/12 315/15/12 316/15/12 252/15/12
f 305/15/23 369/15/23 368/15/23 304/15/23
f 278/15/22 342/15/22 343/15/22 279/15/22
f 252/15/10 316/15/10 317/15/10 253/15/10
f 306/15/21 370/15/21 369/15/21 305/15/21
f 279/15/20 343/15/20 344/15/20 280/15/20
f 253/15/29 317/15/29 318/15/29 254/15/29
f 307/15/19 371/15/19 370/15/19 306/15/19
f 280/15/18 344/15/18 313/15/18 249/15/18
f 254/15/27 318/15/27 319/15/27 255/15/27
f 308/15/17 372/15/17 371/15/17 307/15/17
f 282/15/40 346/15/40 345/15/40 281/15/40
f 255/15/25 319/15/25 320/15/25 256/15/25
f 309/15/15 373/15/15 372/15/15 308/15/15
f 283/15/39 347/15/39 346/15/39 282/15/39
f 256/15/23 320/15/23 321/15/23 257/15/23
f 310/15/13 374/15/13 373/15/13 309/15/13
f 284/15/38 348/15/38 347/15/38 283/15/38
f 257/15/21 321/15/21 322/15/21 258/15/21
f 311/15/11 375/15/11 374/15/11 310/15/11
f 285/15/37 349/15/37 348/15/37 284/15/37
f 258/15/19 322/15/19 323/15/19 259/15/19
f 312/15/9 376/15/9 375/15/9 311/15/9
f 286/15/36 350/15/36 349/15/36 285/15/36
f 259/15/17 323/15/17 324/15/17 260/15/17
f 281/15/35 345/15/35 376/15/35 312/15/35
f 287/15/34 351/15/34 350/15/34 286/15/34
f 260/15/15 324/15/15 325/15/15 261/15/15
f 288/15/33 352/15/33 351/15/33 287/15/33
f 261/15/13 325/15/13 326/15/13 262/15/13
f 289/15/32 353/15/32 352/15/32 288/15/32
f 262/15/11 326/15/11 327/15/11 263/15/11
f 290/15/31 354/15/31 353/15/31 289/15/31
f 263/15/9 327/15/9 328/15/9 264/15/9
f 291/15/30 355/15/30 354/15/30 290/15/30
f 264/15/35 328/15/35 329/15/35 265/15/35
f 292/15/28 356/15/28 355/15/28 291/15/28
f 265/15/40 329/15/40 330/15/40 266/15/40
f 293/15/26 357/15/26 356/15/26 292/15/26
f 439/16/16 438/19/16 437/18/16 440/17/16
f 379/20/8 377/51/8 440/50/8 437/49/8 435/48/8 433/47/8 431/46/8 429/45/8 427/44/8 425/43/8 423/42/8 421/41/8 419/40/8 417/39/8 415/38/8 413/37/8 411/36/8 409/35/8 407/34/8 405/33/8 403/32/8 401/31/8 399/30/8 397/29/8 395/28/8 393/27/8 391/26/8 389/25/8 387/24/8 385/23/8 383/22/8 381/21/8
f 438/19/18 436/53/18 435/52/18 437/18/18
f 398/53/15 396/55/15 395/54/15 397/52/15
f 378/55/14 439/57/14 440/56/14 377/54/14
f 396/58/7 398/89/7 400/88/7 402/87/7 404/86/7 406/85/7 408/84/7 410/83/7 412/82/7 414/81/7 416/80/7 418/79/7 420/78/7 422/77/7 424/76/7 426/75/7 428/74/7 430/73/7 432/72/7 434/71/7 436/70/7 438/69/7 439/68/7 378/67/7 380/66/7 382/65/7 384/64/7 386/63/7 388/62/7 390/61/7 392/60/7 394/59/7
f 436/57/20 434/91/20 433/90/20 435/56/20
f 400/91/13 398/93/13 397/92/13 399/90/13
f 380/93/12 378/95/12 377/94/12 379/92/12
f 434/95/22 432/97/22 431/96/22 433/94/22
f 402/97/11 400/99/11 399/98/11 401/96/11
f 382/99/10 380/101/10 379/100/10 381/98/10
f 432/101/24 430/103/24 429/102/24 431/100/24
f 404/103/9 402/105/9 401/104/9 403/102/9
f 384/105/29 382/107/29 381/106/29 383/104/29
f 430/107/26 428/109/26 427/108/26 429/106/26
f 406/109/35 404/111/35 403/110/35 405/108/35
f 386/111/27 384/113/27 383/112/27 385/110/27
f 428/113/28 426/115/28 425/114/28 427/112/28
f 408/115/40 406/117/40 405/116/40 407/114/40
f 388/117/25 386/119/25 385/118/25 387/116/25
f 426/119/30 424/121/30 423/120/30 425/118/30
f 410/121/39 408/123/39 407/122/39 409/120/39
f 390/123/23 388/125/23 387/124/23 389/122/23
f 424/125/31 422/127/31 421/126/31 423/124/31
f 412/127/38 410/129/38 409/128/38 411/126/38
f 392/129/21 390/131/21 389/130/21 391/128/21
f 422/131/32 420/133/32 419/132/32 421/130/32
f 414/133/37 412/135/37 411/134/37 413/132/37
f 394/135/19 392/137/19 391/136/19 393/134/19
f 420/137/33 418/139/33 417/138/33 419/136/33
f 416/139/36 414/141/36 413/140/36 415/138/36
f 418/141/34 416/143/34 415/142/34 417/140/34
f 396/143/17 394/145/17 393/144/17 395/142/17
f 441/146/43 443/149/43 444/148/43 442/147/43
f 443/149/42 447/121/42 448/105/42 444/148/42
f 447/121/41 445/151/41 446/150/41 448/105/41
f 445/151/44 441/120/44 442/104/44 446/150/44
f 443/137/7 441/152/7 445/151/7 447/121/7
f 448/105/8 446/150/8 442/153/8 444/57/8
f 449/146/49 451/149/49 452/148/49 450/147/49
f 451/149/52 455/121/52 456/105/52 452/148/52
f 455/121/51 453/151/51 454/150/51 456/105/51
f 453/151/50 449/120/50 450/104/50 454/150/50
f 451/137/7 449/152/7 453/151/7 455/121/7
f 456/105/8 454/150/8 450/153/8 452/57/8
f 457/146/45 459/149/45 460/148/45 458/147/45
f 459/149/48 463/121/48 464/105/48 460/148/48
f 463/121/47 461/151/47 462/150/47 464/105/47
f 461/151/46 457/120/46 458/104/46 462/150/46
f 459/137/7 457/152/7 461/151/7 463/121/7
f 464/105/8 462/150/8 458/153/8 460/57/8
f 465/146/41 467/149/41 468/148/41 466/147/41
f 467/149/44 471/121/44 472/105/44 468/148/44
f 471/121/43 469/151/43 470/150/43 472/105/43
f 469/151/42 465/120/42 466/104/42 470/150/42
f 467/137/7 465/152/7 469/151/7 471/121/7
f 472/105/8 470/150/8 466/153/8 468/57/8
f 473/146/51 475/149/51 476/148/51 474/147/51
f 475/149/50 479/121/50 480/105/50 476/148/50
f 479/121/49 477/151/49 478/150/49 480/105/49
f 477/151/52 473/120/52 474/104/52 478/150/52
f 475/137/7 473/152/7 477/151/7 479/121/7
f 480/105/8 478/150/8 474/153/8 476/57/8
f 481/146/47 483/149/47 484/148/47 482/147/47
f 483/149/46 487/121/46 488/105/46 484/148/46
f 487/121/45 485/151/45 486/150/45 488/105/45
f 485/151/48 481/120/48 482/104/48 486/150/48
f 483/137/7 481/152/7 485/151/7 487/121/7
f 488/105/8 486/150/8 482/153/8 484/57/8
f 521/15/7 552/15/7 520/15/7 489/15/7
f 552/15/7 551/15/7 519/15/7 520/15/7
f 551/15/7 550/15/7 518/15/7 519/15/7
f 550/15/7 549/15/7 517/15/7 518/15/7
f 549/15/7 548/15/7 516/15/7 517/15/7
f 548/15/7 547/15/7 515/15/7 516/15/7
f 547/15/7 546/15/7 514/15/7 515/15/7
f 546/15/7 545/15/7 513/15/7 514/15/7
f 545/15/7 544/15/7 512/15/7 513/15/7
f 544/15/7 543/15/7 511/15/7 512/15/7
f 543/15/7 542/15/7 510/15/7 511/15/7
f 542/15/7 541/15/7 509/15/7 510/15/7
f 541/15/7 540/15/7 508/15/7 509/15/7
f 540/15/7 539/15/7 507/15/7 508/15/7
f 539/15/7 538/15/7 506/15/7 507/15/7
f 538/15/7 537/15/7 505/15/7 506/15/7
f 537/15/7 536/15/7 504/15/7 505/15/7
f 536/15/7 535/15/7 503/15/7 504/15/7
f 535/15/7 534/15/7 502/15/7 503/15/7
f 534/15/7 533/15/7 501/15/7 502/15/7
f 533/15/7 532/15/7 500/15/7 501/15/7
f 532/15/7 531/15/7 499/15/7 500/15/7
f 531/15/7 530/15/7 498/15/7 499/15/7
f 530/15/7 529/15/7 497/15/7 498/15/7
f 529/15/7 528/15/7 496/15/7 497/15/7
f 528/15/7 527/15/7 495/15/7 496/15/7
f 527/15/7 526/15/7 494/15/7 495/15/7
f 526/15/7 525/15/7 493/15/7 494/15/7
f 525/15/7 524/15/7 492/15/7 493/15/7
f 524/15/7 523/15/7 491/15/7 492/15/7
f 523/15/7 522/15/7 490/15/7 491/15/7
f 522/15/7 521/15/7 489/15/7 490/15/7
f 585/15/8 553/15/8 584/15/8 616/15/8
f 616/15/8 584/15/8 583/15/8 615/15/8
f 615/15/8 583/15/8 582/15/8 614/15/8
f 614/15/8 582/15/8 581/15/8 613/15/8
f 613/15/8 581/15/8 580/15/8 612/15/8
f 612/15/8 580/15/8 579/15/8 611/15/8
f 611/15/8 579/15/8 578/15/8 610/15/8
f 610/15/8 578/15/8 577/15/8 609/15/8
f 609/15/8 577/15/8 576/15/8 608/15/8
f 608/15/8 576/15/8 575/15/8 607/15/8
f 607/15/8 575/15/8 574/15/8 606/15/8
f 606/15/8 574/15/8 573/15/8 605/15/8
f 605/15/8 573/15/8 572/15/8 604/15/8
f 604/15/8 572/15/8 571/15/8 603/15/8
f 603/15/8 571/15/8 570/15/8 602/15/8
f 602/15/8 570/15/8 569/15/8 601/15/8
f 601/15/8 569/15/8 568/15/8 600/15/8
f 600/15/8 568/15/8 567/15/8 599/15/8
f 599/15/8 567/15/8 566/15/8 598/15/8
f 598/15/8 566/15/8 565/15/8 597/15/8
f 597/15/8 565/15/8 564/15/8 596/15/8
f 596/15/8 564/15/8 563/15/8 595/15/8
f 595/15/8 563/15/8 562/15/8 594/15/8
f 594/15/8 562/15/8 561/15/8 593/15/8
f 593/15/8 561/15/8 560/15/8 592/15/8
f 592/15/8 560/15/8 559/15/8 591/15/8
f 591/15/8 559/15/8 558/15/8 590/15/8
f 590/15/8 558/15/8 557/15/8 589/15/8
f 589/15/8 557/15/8 556/15/8 588/15/8
f 588/15/8 556/15/8 555/15/8 587/15/8
f 587/15/8 555/15/8 554/15/8 586/15/8
f 586/15/8 554/15/8 553/15/8 585/15/8
f 506/15/14 570/15/14 571/15/14 507/15/14
f 534/15/13 598/15/13 597/15/13 533/15/13
f 507/15/12 571/15/12 572/15/12 508/15/12
f 535/15/11 599/15/11 598/15/11 534/15/11
f 508/15/10 572/15/10 573/15/10 509/15/10
f 536/15/9 600/15/9 599/15/9 535/15/9
f 509/15/29 573/15/29 574/15/29 510/15/29
f 537/15/35 601/15/35 600/15/35 536/15/35
f 510/15/27 574/15/27 575/15/27 511/15/27
f 538/15/40 602/15/40 601/15/40 537/15/40
f 511/15/25 575/15/25 576/15/25 512/15/25
f 539/15/39 603/15/39 602/15/39 538/15/39
f 512/15/23 576/15/23 577/15/23 513/15/23
f 540/15/38 604/15/38 603/15/38 539/15/38
f 513/15/21 577/15/21 578/15/21 514/15/21
f 541/15/37 605/15/37 604/15/37 540/15/37
f 514/15/19 578/15/19 579/15/19 515/15/19
f 542/15/36 606/15/36 605/15/36 541/15/36
f 515/15/17 579/15/17 580/15/17 516/15/17
f 489/15/40 553/15/40 554/15/40 490/15/40
f 543/15/34 607/15/34 606/15/34 542/15/34
f 516/15/15 580/15/15 581/15/15 517/15/15
f 490/15/39 554/15/39 555/15/39 491/15/39
f 544/15/33 608/15/33 607/15/33 543/15/33
f 517/15/13 581/15/13 582/15/13 518/15/13
f 491/15/38 555/15/38 556/15/38 492/15/38
f 545/15/32 609/15/32 608/15/32 544/15/32
f 518/15/11 582/15/11 583/15/11 519/15/11
f 492/15/37 556/15/37 557/15/37 493/15/37
f 546/15/31 610/15/31 609/15/31 545/15/31
f 519/15/9 583/15/9 584/15/9 520/15/9
f 493/15/36 557/15/36 558/15/36 494/15/36
f 547/15/30 611/15/30 610/15/30 546/15/30
f 520/15/35 584/15/35 553/15/35 489/15/35
f 494/15/34 558/15/34 559/15/34 495/15/34
f 548/15/28 612/15/28 611/15/28 547/15/28
f 522/15/16 586/15/16 585/15/16 521/15/16
f 495/15/33 559/15/33 560/15/33 496/15/33
f 549/15/26 613/15/26 612/15/26 548/15/26
f 523/15/14 587/15/14 586/15/14 522/15/14
f 496/15/32 560/15/32 561/15/32 497/15/32
f 550/15/24 614/15/24 613/15/24 549/15/24
f 524/15/12 588/15/12 587/15/12 523/15/12
f 497/15/31 561/15/31 562/15/31 498/15/31
f 551/15/22 615/15/22 614/15/22 550/15/22
f 525/15/10 589/15/10 588/15/10 524/15/10
f 498/15/30 562/15/30 563/15/30 499/15/30
f 552/15/20 616/15/20 615/15/20 551/15/20
f 526/15/29 590/15/29 589/15/29 525/15/29
f 499/15/28 563/15/28 564/15/28 500/15/28
f 521/15/18 585/15/18 616/15/18 552/15/18
f 527/15/27 591/15/27 590/15/27 526/15/27
f 500/15/26 564/15/26 565/15/26 501/15/26
f 528/15/25 592/15/25 591/15/25 527/15/25
f 501/15/24 565/15/24 566/15/24 502/15/24
f 529/15/23 593/15/23 592/15/23 528/15/23
f 502/15/22 566/15/22 567/15/22 503/15/22
f 530/15/21 594/15/21 593/15/21 529/15/21
f 503/15/20 567/15/20 568/15/20 504/15/20
f 531/15/19 595/15/19 594/15/19 530/15/19
f 504/15/18 568/15/18 569/15/18 505/15/18
f 532/15/17 596/15/17 595/15/17 531/15/17
f 505/15/16 569/15/16 570/15/16 506/15/16
f 533/15/15 597/15/15 596/15/15 532/15/15
f 679/16/40 678/19/40 677/18/40 680/17/40
f 619/20/8 617/51/8 680/50/8 677/49/8 675/48/8 673/47/8 671/46/8 669/45/8 667/44/8 665/43/8 663/42/8 661/41/8 659/40/8 657/39/8 655/38/8 653/37/8 651/36/8 649/35/8 647/34/8 645/33/8 643/32/8 641/31/8 639/30/8 637/29/8 635/28/8 633/27/8 631/26/8 629/25/8 627/24/8 625/23/8 623/22/8 621/21/8
f 678/19/35 676/53/35 675/52/35 677/18/35
f 638/53/26 636/55/26 635/54/26 637/52/26
f 618/55/39 679/57/39 680/56/39 617/54/39
f 636/58/7 638/89/7 640/88/7 642/87/7 644/86/7 646/85/7 648/84/7 650/83/7 652/82/7 654/81/7 656/80/7 658/79/7 660/78/7 662/77/7 664/76/7 666/75/7 668/74/7 670/73/7 672/72/7 674/71/7 676/70/7 678/69/7 679/68/7 618/67/7 620/66/7 622/65/7 624/64/7 626/63/7 628/62/7 630/61/7 632/60/7 634/59/7
f 676/57/9 674/91/9 673/90/9 675/56/9
f 640/91/24 638/93/24 637/92/24 639/90/24
f 620/93/38 618/95/38 617/94/38 619/92/38
f 674/95/11 672/97/11 671/96/11 673/94/11
f 642/97/22 640/99/22 639/98/22 641/96/22
f 622/99/37 620/101/37 619/100/37 621/98/37
f 672/101/13 670/103/13 669/102/13 671/100/13
f 644/103/20 642/105/20 641/104/20 643/102/20
f 624/105/36 622/107/36 621/106/36 623/104/36
f 670/107/15 668/109/15 667/108/15 669/106/15
f 646/109/18 644/111/18 643/110/18 645/108/18
f 626/111/34 624/113/34 623/112/34 625/110/34
f 668/113/17 666/115/17 665/114/17 667/112/17
f 648/115/16 646/117/16 645/116/16 647/114/16
f 628/117/33 626/119/33 625/118/33 627/116/33
f 666/119/19 664/121/19 663/120/19 665/118/19
f 650/121/14 648/123/14 647/122/14 649/120/14
f 630/123/32 628/125/32 627/124/32 629/122/32
f 664/125/21 662/127/21 661/126/21 663/124/21
f 652/127/12 650/129/12 649/128/12 651/126/12
f 632/129/31 630/131/31 629/130/31 631/128/31
f 662/131/23 660/133/23 659/132/23 661/130/23
f 654/133/10 652/135/10 651/134/10 653/132/10
f 634/135/30 632/137/30 631/136/30 633/134/30
f 660/137/25 658/139/25 657/138/25 659/136/25
f 656/139/29 654/141/29 653/140/29 655/138/29
f 658/141/27 656/143/27 655/142/27 657/140/27
f 636/143/28 634/145/28 633/144/28 635/142/28
f 681/146/41 683/149/41 684/148/41 682/147/41
f 683/149/44 687/121/44 688/105/44 684/148/44
f 687/121/43 685/151/43 686/150/43 688/105/43
f 685/151/42 681/120/42 682/104/42 686/150/42
f 683/137/7 681/152/7 685/151/7 687/121/7
f 688/105/8 686/150/8 682/153/8 684/57/8
f 689/146/51 691/149/51 692/148/51 690/147/51
f 691/149/50 695/121/50 696/105/50 692/148/50
f 695/121/49 693/151/49 694/150/49 696/105/49
f 693/151/52 689/120/52 690/104/52 694/150/52
f 691/137/7 689/152/7 693/151/7 695/121/7
f 696/105/8 694/150/8 690/153/8 692/57/8
f 697/146/47 699/149/47 700/148/47 698/147/47
f 699/149/46 703/121/46 704/105/46 700/148/46
f 703/121/45 701/151/45 702/150/45 704/105/45
f 701/151/48 697/120/48 698/104/48 702/150/48
f 699/137/7 697/152/7 701/151/7 703/121/7
f 704/105/8 702/150/8 698/153/8 700/57/8
f 705/146/43 707/149/43 708/148/43 706/147/43
f 707/149/42 711/121/42 712/105/42 708/148/42
f 711/121/41 709/151/41 710/150/41 712/105/41
f 709/151/44 705/120/44 706/104/44 710/150/44
f 707/137/7 705/152/7 709/151/7 711/121/7
f 712/105/8 710/150/8 706/153/8 708/57/8
f 713/146/49 715/149/49 716/148/49 714/147/49
f 715/149/52 719/121/52 720/105/52 716/148/52
f 719/121/51 717/151/51 718/150/51 720/105/51
f 717/151/50 713/120/50 714/104/50 718/150/50
f 715/137/7 713/152/7 717/151/7 719/121/7
f 720/105/8 718/150/8 714/153/8 716/57/8
f 721/146/45 723/149/45 724/148/45 722/147/45
f 723/149/48 727/121/48 728/105/48 724/148/48
f 727/121/47 725/151/47 726/150/47 728/105/47
f 725/151/46 721/120/46 722/104/46 726/150/46
f 723/137/7 721/152/7 725/151/7 727/121/7
f 728/105/8 726/150/8 722/153/8 724/57/8
f 761/15/7 729/15/7 760/15/7 792/15/7
f 792/15/7 760/15/7 759/15/7 791/15/7
f 791/15/7 759/15/7 758/15/7 790/15/7
f 790/15/7 758/15/7 757/15/7 789/15/7
f 789/15/7 757/15/7 756/15/7 788/15/7
f 788/15/7 756/15/7 755/15/7 787/15/7
f 787/15/7 755/15/7 754/15/7 786/15/7
f 786/15/7 754/15/7 753/15/7 785/15/7
f 785/15/7 753/15/7 752/15/7 784/15/7
f 784/15/7 752/15/7 751/15/7 783/15/7
f 783/15/7 751/15/7 750/15/7 782/15/7
f 782/15/7 750/15/7 749/15/7 781/15/7
f 781/15/7 749/15/7 748/15/7 780/15/7
f 780/15/7 748/15/7 747/15/7 779/15/7
f 779/15/7 747/15/7 746/15/7 778/15/7
f 778/15/7 746/15/7 745/15/7 777/15/7
f 777/15/7 745/15/7 744/15/7 776/15/7
f 776/15/7 744/15/7 743/15/7 775/15/7
f 775/15/7 743/15/7 742/15/7 774/15/7
f 774/15/7 742/15/7 741/15/7 773/15/7
f 773/15/7 741/15/7 740/15/7 772/15/7
f 772/15/7 740/15/7 739/15/7 771/15/7
f 771/15/7 739/15/7 738/15/7 770/15/7
f 770/15/7 738/15/7 737/15/7 769/15/7
f 769/15/7 737/15/7 736/15/7 768/15/7
f 768/15/7 736/15/7 735/15/7 767/15/7
f 767/15/7 735/15/7 734/15/7 766/15/7
f 766/15/7 734/15/7 733/15/7 765/15/7
f 765/15/7 733/15/7 732/15/7 764/15/7
f 764/15/7 732/15/7 731/15/7 763/15/7
f 763/15/7 731/15/7 730/15/7 762/15/7
f 762/15/7 730/15/7 729/15/7 761/15/7
f 825/15/8 856/15/8 824/15/8 793/15/8
f 856/15/8 855/15/8 823/15/8 824/15/8
f 855/15/8 854/15/8 822/15/8 823/15/8
f 854/15/8 853/15/8 821/15/8 822/15/8
f 853/15/8 852/15/8 820/15/8 821/15/8
f 852/15/8 851/15/8 819/15/8 820/15/8
f 851/15/8 850/15/8 818/15/8 819/15/8
f 850/15/8 849/15/8 817/15/8 818/15/8
f 849/15/8 848/15/8 816/15/8 817/15/8
f 848/15/8 847/15/8 815/15/8 816/15/8
f 847/15/8 846/15/8 814/15/8 815/15/8
f 846/15/8 845/15/8 813/15/8 814/15/8
f 845/15/8 844/15/8 812/15/8 813/15/8
f 844/15/8 843/15/8 811/15/8 812/15/8
f 843/15/8 842/15/8 810/15/8 811/15/8
f 842/15/8 841/15/8 809/15/8 810/15/8
f 841/15/8 840/15/8 808/15/8 809/15/8
f 840/15/8 839/15/8 807/15/8 808/15/8
f 839/15/8 838/15/8 806/15/8 807/15/8
f 838/15/8 837/15/8 805/15/8 806/15/8
f 837/15/8 836/15/8 804/15/8 805/15/8
f 836/15/8 835/15/8 803/15/8 804/15/8
f 835/15/8 834/15/8 802/15/8 803/15/8
f 834/15/8 833/15/8 801/15/8 802/15/8
f 833/15/8 832/15/8 800/15/8 801/15/8
f 832/15/8 831/15/8 799/15/8 800/15/8
f 831/15/8 830/15/8 798/15/8 799/15/8
f 830/15/8 829/15/8 797/15/8 798/15/8
f 829/15/8 828/15/8 796/15/8 797/15/8
f 828/15/8 827/15/8 795/15/8 796/15/8
f 827/15/8 826/15/8 794/15/8 795/15/8
f 826/15/8 825/15/8 793/15/8 794/15/8
f 746/15/20 747/15/20 811/15/20 810/15/20
f 774/15/37 773/15/37 837/15/37 838/15/37
f 747/15/22 748/15/22 812/15/22 811/15/22
f 775/15/38 774/15/38 838/15/38 839/15/38
f 748/15/24 749/15/24 813/15/24 812/15/24
f 776/15/39 775/15/39 839/15/39 840/15/39
f 749/15/26 750/15/26 814/15/26 813/15/26
f 777/15/40 776/15/40 840/15/40 841/15/40
f 750/15/28 751/15/28 815/15/28 814/15/28
f 778/15/35 777/15/35 841/15/35 842/15/35
f 751/15/30 752/15/30 816/15/30 815/15/30
f 779/15/9 778/15/9 842/15/9 843/15/9
f 752/15/31 753/15/31 817/15/31 816/15/31
f 780/15/11 779/15/11 843/15/11 844/15/11
f 753/15/32 754/15/32 818/15/32 817/15/32
f 781/15/13 780/15/13 844/15/13 845/15/13
f 754/15/33 755/15/33 819/15/33 818/15/33
f 782/15/15 781/15/15 845/15/15 846/15/15
f 755/15/34 756/15/34 820/15/34 819/15/34
f 729/15/35 730/15/35 794/15/35 793/15/35
f 783/15/17 782/15/17 846/15/17 847/15/17
f 756/15/36 757/15/36 821/15/36 820/15/36
f 730/15/9 731/15/9 795/15/9 794/15/9
f 784/15/19 783/15/19 847/15/19 848/15/19
f 757/15/37 758/15/37 822/15/37 821/15/37
f 731/15/11 732/15/11 796/15/11 795/15/11
f 785/15/21 784/15/21 848/15/21 849/15/21
f 758/15/38 759/15/38 823/15/38 822/15/38
f 732/15/13 733/15/13 797/15/13 796/15/13
f 786/15/23 785/15/23 849/15/23 850/15/23
f 759/15/39 760/15/39 824/15/39 823/15/39
f 733/15/15 734/15/15 798/15/15 797/15/15
f 787/15/25 786/15/25 850/15/25 851/15/25
f 760/15/40 729/15/40 793/15/40 824/15/40
f 734/15/17 735/15/17 799/15/17 798/15/17
f 788/15/27 787/15/27 851/15/27 852/15/27
f 762/15/18 761/15/18 825/15/18 826/15/18
f 735/15/19 736/15/19 800/15/19 799/15/19
f 789/15/29 788/15/29 852/15/29 853/15/29
f 763/15/20 762/15/20 826/15/20 827/15/20
f 736/15/21 737/15/21 801/15/21 800/15/21
f 790/15/10 789/15/10 853/15/10 854/15/10
f 764/15/22 763/15/22 827/15/22 828/15/22
f 737/15/23 738/15/23 802/15/23 801/15/23
f 791/15/12 790/15/12 854/15/12 855/15/12
f 765/15/24 764/15/24 828/15/24 829/15/24
f 738/15/25 739/15/25 803/15/25 802/15/25
f 792/15/14 791/15/14 855/15/14 856/15/14
f 766/15/26 765/15/26 829/15/26 830/15/26
f 739/15/27 740/15/27 804/15/27 803/15/27
f 761/15/16 792/15/16 856/15/16 825/15/16
f 767/15/28 766/15/28 830/15/28 831/15/28
f 740/15/29 741/15/29 805/15/29 804/15/29
f 768/15/30 767/15/30 831/15/30 832/15/30
f 741/15/10 742/15/10 806/15/10 805/15/10
f 769/15/31 768/15/31 832/15/31 833/15/31
f 742/15/12 743/15/12 807/15/12 806/15/12
f 770/15/32 769/15/32 833/15/32 834/15/32
f 743/15/14 744/15/14 808/15/14 807/15/14
f 771/15/33 770/15/33 834/15/33 835/15/33
f 744/15/16 745/15/16 809/15/16 808/15/16
f 772/15/34 771/15/34 835/15/34 836/15/34
f 745/15/18 746/15/18 810/15/18 809/15/18
f 773/15/36 772/15/36 836/15/36 837/15/36
f 919/16/35 920/17/35 917/18/35 918/19/35
f 859/20/8 861/21/8 863/22/8 865/23/8 867/24/8 869/25/8 871/26/8 873/27/8 875/28/8 877/29/8 879/30/8 881/31/8 883/32/8 885/33/8 887/34/8 889/35/8 891/36/8 893/37/8 895/38/8 897/39/8 899/40/8 901/41/8 903/42/8 905/43/8 907/44/8 909/45/8 911/46/8 913/47/8 915/48/8 917/49/8 920/50/8 857/51/8
f 918/19/40 917/18/40 915/52/40 916/53/40
f 878/53/29 877/52/29 875/54/29 876/55/29
f 858/55/9 857/54/9 920/56/9 919/57/9
f 876/58/7 874/59/7 872/60/7 870/61/7 868/62/7 866/63/7 864/64/7 862/65/7 860/66/7 858/67/7 919/68/7 918/69/7 916/70/7 914/71/7 912/72/7 910/73/7 908/74/7 906/75/7 904/76/7 902/77/7 900/78/7 898/79/7 896/80/7 894/81/7 892/82/7 890/83/7 888/84/7 886/85/7 884/86/7 882/87/7 880/88/7 878/89/7
f 916/57/39 915/56/39 913/90/39 914/91/39
f 880/91/10 879/90/10 877/92/10 878/93/10
f 860/93/11 859/92/11 857/94/11 858/95/11
f 914/95/38 913/94/38 911/96/38 912/97/38
f 882/97/12 881/96/12 879/98/12 880/99/12
f 862/99/13 861/98/13 859/100/13 860/101/13
f 912/101/37 911/100/37 909/102/37 910/103/37
f 884/103/14 883/102/14 881/104/14 882/105/14
f 864/105/15 863/104/15 861/106/15 862/107/15
f 910/107/36 909/106/36 907/108/36 908/109/36
f 886/109/16 885/108/16 883/110/16 884/111/16
f 866/111/17 865/110/17 863/112/17 864/113/17
f 908/113/34 907/112/34 905/114/34 906/115/34
f 888/115/18 887/114/18 885/116/18 886/117/18
f 868/117/19 867/116/19 865/118/19 866/119/19
f 906/119/33 905/118/33 903/120/33 904/121/33
f 890/121/20 889/120/20 887/122/20 888/123/20
f 870/123/21 869/122/21 867/124/21 868/125/21
f 904/125/32 903/124/32 901/126/32 902/127/32
f 892/127/22 891/126/22 889/128/22 890/129/22
f 872/129/23 871/128/23 869/130/23 870/131/23
f 902/131/31 901/130/31 899/132/31 900/133/31
f 894/133/24 893/132/24 891/134/24 892/135/24
f 874/135/25 873/134/25 871/136/25 872/137/25
f 900/137/30 899/136/30 897/138/30 898/139/30
f 896/139/26 895/138/26 893/140/26 894/141/26
f 898/141/28 897/140/28 895/142/28 896/143/28
f 876/143/27 875/142/27 873/144/27 874/145/27
f 921/146/43 922/147/43 924/148/43 923/149/43
f 923/149/44 924/148/44 928/105/44 927/121/44
f 927/121/41 928/105/41 926/150/41 925/151/41
f 925/151/42 926/150/42 922/104/42 921/120/42
f 923/137/7 927/121/7 925/151/7 921/152/7
f 928/105/8 924/57/8 922/153/8 926/150/8
f 929/146/47 930/147/47 932/148/47 931/149/47
f 931/149/48 932/148/48 936/105/48 935/121/48
f 935/121/45 936/105/45 934/150/45 933/151/45
f 933/151/46 934/150/46 930/104/46 929/120/46
f 931/137/7 935/121/7 933/151/7 929/152/7
f 936/105/8 932/57/8 930/153/8 934/150/8
f 937/146/51 938/147/51 940/148/51 939/149/51
f 939/149/52 940/148/52 944/105/52 943/121/52
f 943/121/49 944/105/49 942/150/49 941/151/49
f 941/151/50 942/150/50 938/104/50 937/120/50
f 939/137/7 943/121/7 941/151/7 937/152/7
f 944/105/8 940/57/8 938/153/8 942/150/8
f 945/146/41 946/147/41 948/148/41 947/149/41
f 947/149/42 948/148/42 952/105/42 951/121/42
f 951/121/43 952/105/43 950/150/43 949/151/43
f 949/151/44 950/150/44 946/104/44 945/120/44
f 947/137/7 951/121/7 949/151/7 945/152/7
f 952/105/8 948/57/8 946/153/8 950/150/8
f 953/146/45 954/147/45 956/148/45 955/149/45
f 955/149/46 956/148/46 960/105/46 959/121/46
f 959/121/47 960/105/47 958/150/47 957/151/47
f 957/151/48 958/150/48 954/104/48 953/120/48
f 955/137/7 959/121/7 957/151/7 953/152/7
f 960/105/8 956/57/8 954/153/8 958/150/8
f 961/146/49 962/147/49 964/148/49 963/149/49
f 963/149/50 964/148/50 968/105/50 967/121/50
f 967/121/51 968/105/51 966/150/51 965/151/51
f 965/151/52 966/150/52 962/104/52 961/120/52
f 963/137/7 967/121/7 965/151/7 961/152/7
f 968/105/8 964/57/8 962/153/8 966/150/8
